custom-analysis
version=1
nRows=49
nColumns=13
inDegrees=no

This file contains tibia displacement and acting force.

Units are S.I. units (seconds, meters, Newtons, ...)
Angles are in degrees.

endheader
time	displacement	knee_angle	aACL_R_strain	pACL_R_strain	aPCL_R_strain	pPCL_R_strain	aMCL_R_strain	aLCL_R_strain	aPCL_L_strain	pPCL_L_strain	aMCL_L_strain	aLCL_L_strain
      0.06683642	      0.00573177	      6.86960302	     -0.07269903	     -0.09805988	     -0.11661073	     -0.14078908	     -0.07051196	     -0.07337040	     -0.00132486	     -0.26920988	      0.02211520	      0.01559050
      0.06803105	      0.00582377	      7.09037943	     -0.07162377	     -0.09783321	     -0.11628513	     -0.14123997	     -0.07079905	     -0.07357259	      0.00032798	     -0.26752579	      0.02229358	      0.01568450
      0.06882950	      0.00588454	      7.23965766	     -0.07091410	     -0.09771011	     -0.11598396	     -0.14148650	     -0.07099354	     -0.07368474	      0.00136148	     -0.26641692	      0.02241298	      0.01573608
      0.06962795	      0.00594664	      7.39084447	     -0.07015604	     -0.09753306	     -0.11568605	     -0.14172560	     -0.07117797	     -0.07379327	      0.00227847	     -0.26533504	      0.02253500	      0.01577522
      0.07087115	      0.00604367	      7.62910572	     -0.06898829	     -0.09729120	     -0.11514498	     -0.14205294	     -0.07147758	     -0.07394720	      0.00355521	     -0.26369156	      0.02272724	      0.01581968
      0.07156447	      0.00609921	      7.76410051	     -0.06826304	     -0.09707197	     -0.11484593	     -0.14221931	     -0.07162450	     -0.07402366	      0.00421765	     -0.26279214	      0.02283455	      0.01583880
      0.07225779	      0.00615422	      7.89991802	     -0.06757096	     -0.09690220	     -0.11449573	     -0.14236054	     -0.07178460	     -0.07409232	      0.00485963	     -0.26190275	      0.02294143	      0.01585540
      0.07347521	      0.00625208	      8.14133069	     -0.06631403	     -0.09656553	     -0.11384541	     -0.14257664	     -0.07206060	     -0.07420061	      0.00596494	     -0.26036148	      0.02312718	      0.01588121
      0.07424991	      0.00631425	      8.29670371	     -0.06550139	     -0.09634796	     -0.11337616	     -0.14267267	     -0.07223404	     -0.07425220	      0.00666779	     -0.25939266	      0.02324360	      0.01589676
      0.07502460	      0.00637731	      8.45378312	     -0.06463811	     -0.09607484	     -0.11289516	     -0.14274771	     -0.07239393	     -0.07429341	      0.00737681	     -0.25843259	      0.02335843	      0.01591229
      0.07615601	      0.00646968	      8.68537707	     -0.06340437	     -0.09572113	     -0.11213312	     -0.14282750	     -0.07264612	     -0.07434675	      0.00843468	     -0.25704526	      0.02352268	      0.01593549
      0.07707592	      0.00654677	      8.87598482	     -0.06237973	     -0.09541018	     -0.11152131	     -0.14289820	     -0.07285820	     -0.07439728	      0.00932065	     -0.25592972	      0.02365305	      0.01595529
      0.07799583	      0.00662290	      9.06814569	     -0.06136780	     -0.09512941	     -0.11082570	     -0.14291288	     -0.07307526	     -0.07442558	      0.01023268	     -0.25482542	      0.02378063	      0.01597632
      0.07891574	      0.00670117	      9.26274693	     -0.06026587	     -0.09474264	     -0.11014238	     -0.14291353	     -0.07327004	     -0.07444608	      0.01117003	     -0.25373308	      0.02390557	      0.01599864
      0.07974199	      0.00677006	      9.43848908	     -0.05933355	     -0.09447770	     -0.10944336	     -0.14287014	     -0.07346637	     -0.07445061	      0.01203335	     -0.25276264	      0.02401558	      0.01601971
      0.08056824	      0.00684082	      9.61602104	     -0.05835415	     -0.09415564	     -0.10876349	     -0.14283061	     -0.07365680	     -0.07445822	      0.01291703	     -0.25180257	      0.02412345	      0.01604156
      0.08151014	      0.00692133	      9.81981711	     -0.05726583	     -0.09383065	     -0.10793949	     -0.14276082	     -0.07389057	     -0.07446154	      0.01394555	     -0.25072186	      0.02424396	      0.01606708
      0.08245203	      0.00700304	     10.02566136	     -0.05613078	     -0.09345398	     -0.10710019	     -0.14266863	     -0.07411615	     -0.07445611	      0.01499481	     -0.24965647	      0.02436194	      0.01609302
      0.08338901	      0.00708340	     10.23187363	     -0.05501454	     -0.09310705	     -0.10618781	     -0.14252448	     -0.07434685	     -0.07443078	      0.01605629	     -0.24861281	      0.02447694	      0.01611899
      0.08432598	      0.00716470	     10.43999357	     -0.05385814	     -0.09271663	     -0.10525355	     -0.14235436	     -0.07457081	     -0.07439535	      0.01713409	     -0.24758575	      0.02458960	      0.01614482
      0.08577164	      0.00728892	     10.76398024	     -0.05207680	     -0.09213784	     -0.10368138	     -0.14199732	     -0.07492245	     -0.07430441	      0.01882287	     -0.24603540	      0.02475905	      0.01618361
      0.08666184	      0.00736524	     10.96574147	     -0.05089789	     -0.09169596	     -0.10263707	     -0.14169545	     -0.07510855	     -0.07420853	      0.01987540	     -0.24510229	      0.02486089	      0.01620654
      0.08755204	      0.00744153	     11.16931880	     -0.04965852	     -0.09119157	     -0.10153486	     -0.14133229	     -0.07527290	     -0.07408312	      0.02093747	     -0.24418558	      0.02496093	      0.01622869
      0.08868177	      0.00753841	     11.42960747	     -0.04811978	     -0.09059989	     -0.10008421	     -0.14084661	     -0.07550528	     -0.07392135	      0.02228957	     -0.24304763	      0.02508589	      0.01625541
      0.08946451	      0.00760555	     11.61130609	     -0.04705780	     -0.09020059	     -0.09904087	     -0.14048447	     -0.07567367	     -0.07380168	      0.02322178	     -0.24227746	      0.02517153	      0.01627274
      0.09024725	      0.00767310	     11.79456582	     -0.04593216	     -0.08973122	     -0.09796281	     -0.14007742	     -0.07582019	     -0.07365939	      0.02415093	     -0.24152214	      0.02525636	      0.01628909
      0.09169515	      0.00779807	     12.13547773	     -0.04402828	     -0.08907886	     -0.09593188	     -0.13935850	     -0.07618413	     -0.07343597	      0.02585935	     -0.24016521	      0.02541107	      0.01631627
      0.09314306	      0.00792959	     12.47918211	     -0.04234087	     -0.08865276	     -0.09408901	     -0.13886313	     -0.07669919	     -0.07335247	      0.02755283	     -0.23886008	      0.02556304	      0.01633919
      0.09408798	      0.00801580	     12.70510676	     -0.04124962	     -0.08838859	     -0.09285728	     -0.13852227	     -0.07705076	     -0.07329709	      0.02864085	     -0.23803814	      0.02566135	      0.01635185
      0.09503291	      0.00810278	     12.93228157	     -0.04016888	     -0.08813553	     -0.09162098	     -0.13818259	     -0.07741837	     -0.07324864	      0.02971229	     -0.23724124	      0.02575905	      0.01636264
      0.09602022	      0.00819332	     13.17023552	     -0.03914143	     -0.08799087	     -0.09031495	     -0.13784925	     -0.07785439	     -0.07322169	      0.03081595	     -0.23643482	      0.02586041	      0.01637197
      0.09700753	      0.00828514	     13.40947216	     -0.03810271	     -0.08782815	     -0.08901912	     -0.13752075	     -0.07829988	     -0.07320226	      0.03189861	     -0.23565651	      0.02596144	      0.01637958
      0.09835565	      0.00840782	     13.73750537	     -0.03669498	     -0.08763217	     -0.08711505	     -0.13696841	     -0.07890962	     -0.07313432	      0.03334215	     -0.23463903	      0.02609865	      0.01638681
      0.09970376	      0.00853128	     14.06821017	     -0.03516487	     -0.08729414	     -0.08514462	     -0.13632470	     -0.07948074	     -0.07302311	      0.03474656	     -0.23367177	      0.02623487	      0.01638997
      0.10066478	      0.00861744	     14.30508619	     -0.03405871	     -0.08704551	     -0.08363780	     -0.13577972	     -0.07987839	     -0.07290660	      0.03572141	     -0.23301205	      0.02633179	      0.01639010
      0.10162581	      0.00870291	     14.54336699	     -0.03287908	     -0.08671771	     -0.08205375	     -0.13515049	     -0.08024493	     -0.07274854	      0.03666805	     -0.23237863	      0.02642893	      0.01638861
      0.10283681	      0.00880953	     14.84451273	     -0.03147768	     -0.08640725	     -0.08000855	     -0.13434481	     -0.08074947	     -0.07255698	      0.03781088	     -0.23162073	      0.02655195	      0.01638445
      0.10381633	      0.00889511	     15.08829893	     -0.03049042	     -0.08632469	     -0.07835356	     -0.13373715	     -0.08122939	     -0.07244076	      0.03869034	     -0.23104251	      0.02665199	      0.01637933
      0.10479584	      0.00898330	     15.33358126	     -0.02944606	     -0.08616442	     -0.07674164	     -0.13314533	     -0.08170445	     -0.07233366	      0.03953640	     -0.23049419	      0.02675201	      0.01637260
      0.10666283	      0.00915088	     15.80173844	     -0.02773550	     -0.08617442	     -0.07369093	     -0.13211706	     -0.08275560	     -0.07221443	      0.04108539	     -0.22952069	      0.02694162	      0.01635575
      0.10761218	      0.00923698	     16.03993326	     -0.02699956	     -0.08632248	     -0.07219555	     -0.13167647	     -0.08336620	     -0.07221157	      0.04184047	     -0.22905994	      0.02703779	      0.01634543
      0.10856152	      0.00932378	     16.27992036	     -0.02606257	     -0.08623766	     -0.07063223	     -0.13111776	     -0.08389276	     -0.07213990	      0.04256825	     -0.22862330	      0.02713415	      0.01633424
      0.10951087	      0.00940850	     16.52071261	     -0.02506391	     -0.08609110	     -0.06895569	     -0.13044773	     -0.08438408	     -0.07201344	      0.04326378	     -0.22821260	      0.02723118	      0.01632288
      0.11090970	      0.00952924	     16.87540825	     -0.02375292	     -0.08607173	     -0.06637383	     -0.12941648	     -0.08516952	     -0.07182667	      0.04420991	     -0.22766162	      0.02737573	      0.01630577
      0.11230853	      0.00965096	     17.23139793	     -0.02246029	     -0.08606324	     -0.06379456	     -0.12838806	     -0.08598076	     -0.07165283	      0.04506960	     -0.22717332	      0.02752083	      0.01628726
      0.11370735	      0.00977332	     17.58886253	     -0.02114034	     -0.08601550	     -0.06118981	     -0.12732593	     -0.08679407	     -0.07147012	      0.04587907	     -0.22673575	      0.02766470	      0.01626699
      0.11540958	      0.00991972	     18.02376587	     -0.01978326	     -0.08624139	     -0.05798867	     -0.12607580	     -0.08790052	     -0.07130195	      0.04679106	     -0.22627044	      0.02783915	      0.01624159
      0.11711180	      0.01006232	     18.45910088	     -0.01854834	     -0.08661169	     -0.05466343	     -0.12475271	     -0.08905678	     -0.07112278	      0.04762902	     -0.22587483	      0.02801265	      0.01621588
      0.11829125	      0.01015874	     18.76072290	     -0.01778890	     -0.08698055	     -0.05229388	     -0.12380545	     -0.08989708	     -0.07100039	      0.04819889	     -0.22562941	      0.02813151	      0.01619840
